M48
; DRILL file {KiCad 8.0.0-rc1} date 2025-12-23T23:51:38+0100
; FORMAT={-:-/ absolute / inch / decimal}
; #@! TF.CreationDate,2025-12-23T23:51:38+01:00
; #@! TF.GenerationSoftware,Kicad,Pcbnew,8.0.0-rc1
; #@! TF.FileFunction,Plated,1,2,PTH
FMAT,2
INCH
; #@! TA.AperFunction,Plated,PTH,ComponentDrill
T1C0.0315
; #@! TA.AperFunction,Plated,PTH,ComponentDrill
T2C0.0354
; #@! TA.AperFunction,Plated,PTH,ComponentDrill
T3C0.0394
; #@! TA.AperFunction,Plated,PTH,ComponentDrill
T4C0.0433
; #@! TA.AperFunction,Plated,PTH,ComponentDrill
T5C0.0512
%
G90
G05
T1
X3.7008Y-1.4378
X3.7008Y-1.8378
X3.8504Y-1.439
X3.8504Y-1.839
X3.9409Y-2.3386
X4.0551Y-1.2402
X4.0551Y-1.437
X4.1378Y-2.3386
X4.2717Y-2.3386
X4.4685Y-2.3386
X4.6988Y-2.4114
X4.6988Y-2.8114
X4.6996Y-2.9201
X4.6996Y-3.3201
X4.8394Y-2.2343
X4.8858Y-2.4787
X5.0827Y-2.4787
X5.2394Y-2.2343
X5.3031Y-2.6555
X5.3524Y-2.435
X5.5866Y-1.9134
X5.6031Y-2.6555
X5.7524Y-2.435
X5.7835Y-1.9134
X5.9724Y-2.9193
X5.9724Y-3.3193
X5.9744Y-2.4094
X5.9744Y-2.8094
X6.1236Y-2.2362
X6.1614Y-2.4787
X6.1791Y-1.8576
X6.1791Y-1.956
X6.3583Y-2.4787
X6.4764Y-1.8583
X6.4764Y-1.9567
X6.5236Y-2.2362
X6.5862Y-2.6575
X6.6268Y-2.4291
X6.8031Y-1.6307
X6.8031Y-2.0307
X6.8862Y-2.6575
X7.0268Y-2.4291
X7.248Y-2.4173
X7.248Y-2.8173
X7.25Y-2.9173
X7.25Y-3.3173
X7.3945Y-2.2362
X7.4252Y-2.4803
X7.622Y-2.4803
X7.7945Y-2.2362
X7.8516Y-2.6575
X7.8953Y-2.4291
X8.1516Y-2.6575
X8.2953Y-2.4291
X8.5157Y-2.4173
X8.5157Y-2.8173
X8.5177Y-2.9189
X8.5177Y-3.3189
X8.6681Y-2.2343
X8.6929Y-2.4783
X8.8898Y-2.4783
X9.0681Y-2.2343
X9.1232Y-2.6555
X9.1622Y-2.4331
X9.4232Y-2.6555
X9.5622Y-2.4331
T2
X5.6417Y-2.8248
X5.7417Y-2.8248
X6.7327Y-1.3681
X6.8327Y-1.3681
X6.9183Y-2.8228
X7.0183Y-2.8228
X8.1913Y-2.8232
X8.2913Y-2.8232
X9.4591Y-2.8228
X9.5591Y-2.8228
T3
X3.7146Y-2.3346
X3.7744Y-2.6083
X3.7744Y-3.2083
X3.8744Y-2.6083
X3.8744Y-3.2083
X3.9744Y-2.6083
X3.9744Y-3.2083
X4.0512Y-1.7362
X4.0512Y-1.8362
X4.0512Y-1.9362
X4.0512Y-2.0362
X4.2228Y-2.6075
X4.2228Y-3.2075
X4.3228Y-2.6075
X4.3228Y-3.2075
X4.3263Y-1.2352
X4.3263Y-1.3352
X4.3263Y-1.4352
X4.3263Y-1.5352
X4.3263Y-1.6352
X4.3263Y-1.7352
X4.3263Y-1.8352
X4.3263Y-1.9352
X4.3263Y-2.0352
X4.4228Y-2.6075
X4.4228Y-3.2075
X4.9263Y-1.2352
X4.9263Y-1.3352
X4.9263Y-1.4352
X4.9263Y-1.5352
X4.9263Y-1.6352
X4.9263Y-1.7352
X4.9263Y-1.8352
X4.9263Y-1.9352
X4.9263Y-2.0352
X5.1982Y-1.2352
X5.1982Y-1.3352
X5.1982Y-1.4352
X5.1982Y-1.5352
X5.1982Y-1.6352
T4
X4.9102Y-2.7969
X5.0102Y-2.7969
X5.1102Y-2.7969
X5.3681Y-2.9075
X5.3681Y-3.3075
X5.5512Y-3.0528
X5.5512Y-3.3087
X5.7283Y-3.0528
X5.7283Y-3.3087
X6.1878Y-2.8035
X6.2878Y-2.8035
X6.3878Y-2.8035
X6.6339Y-2.9094
X6.6339Y-3.3094
X6.8307Y-3.0492
X6.8307Y-3.3051
X7.0079Y-3.0492
X7.0079Y-3.3051
X7.4642Y-2.8035
X7.5642Y-2.8035
X7.6642Y-2.8035
X7.9094Y-2.9075
X7.9094Y-3.3075
X8.0965Y-3.0492
X8.0965Y-3.3051
X8.2736Y-3.0492
X8.2736Y-3.3051
X8.7299Y-2.8035
X8.8299Y-2.8035
X8.9299Y-2.8035
X9.1732Y-2.9154
X9.1732Y-3.3154
X9.3713Y-3.0496
X9.3713Y-3.3055
X9.5484Y-3.0496
X9.5484Y-3.3055
T5
X4.9174Y-3.1594
X5.1143Y-3.1594
X6.1909Y-3.1622
X6.3878Y-3.1622
X7.4657Y-3.1579
X7.6626Y-3.1579
X8.7315Y-3.1677
X8.9283Y-3.1677
T3
G00X5.4905Y-1.457
M15
G01X5.4905Y-1.5357
M16
G05
G00X5.7149Y-1.3782
M15
G01X5.6361Y-1.3782
M16
G05
G00X5.7149Y-1.6145
M15
G01X5.6361Y-1.6145
M16
G05
G00X6.1259Y-1.2933
M15
G01X6.1259Y-1.4193
M16
G05
G00X6.3149Y-1.2933
M15
G01X6.3149Y-1.4193
M16
G05
M30
