G04 #@! TF.GenerationSoftware,KiCad,Pcbnew,8.0.0-rc1*
G04 #@! TF.CreationDate,2025-12-23T23:51:37+01:00*
G04 #@! TF.ProjectId,Pneumatic control unit system,506e6575-6d61-4746-9963-20636f6e7472,rev?*
G04 #@! TF.SameCoordinates,Original*
G04 #@! TF.FileFunction,Legend,Bot*
G04 #@! TF.FilePolarity,Positive*
%FSLAX46Y46*%
G04 Gerber Fmt 4.6, Leading zero omitted, Abs format (unit mm)*
G04 Created by KiCad (PCBNEW 8.0.0-rc1) date 2025-12-23 23:51:37*
%MOMM*%
%LPD*%
G01*
G04 APERTURE LIST*
G04 Aperture macros list*
%AMRoundRect*
0 Rectangle with rounded corners*
0 $1 Rounding radius*
0 $2 $3 $4 $5 $6 $7 $8 $9 X,Y pos of 4 corners*
0 Add a 4 corners polygon primitive as box body*
4,1,4,$2,$3,$4,$5,$6,$7,$8,$9,$2,$3,0*
0 Add four circle primitives for the rounded corners*
1,1,$1+$1,$2,$3*
1,1,$1+$1,$4,$5*
1,1,$1+$1,$6,$7*
1,1,$1+$1,$8,$9*
0 Add four rect primitives between the rounded corners*
20,1,$1+$1,$2,$3,$4,$5,0*
20,1,$1+$1,$4,$5,$6,$7,0*
20,1,$1+$1,$6,$7,$8,$9,0*
20,1,$1+$1,$8,$9,$2,$3,0*%
G04 Aperture macros list end*
%ADD10C,0.120000*%
%ADD11C,0.300000*%
%ADD12O,1.600000X1.600000*%
%ADD13R,1.600000X1.600000*%
%ADD14R,3.500000X3.500000*%
%ADD15RoundRect,0.750000X-1.000000X0.750000X-1.000000X-0.750000X1.000000X-0.750000X1.000000X0.750000X0*%
%ADD16RoundRect,0.875000X-0.875000X0.875000X-0.875000X-0.875000X0.875000X-0.875000X0.875000X0.875000X0*%
%ADD17C,2.000000*%
%ADD18O,1.700000X1.700000*%
%ADD19R,1.700000X1.700000*%
%ADD20R,2.200000X2.200000*%
%ADD21O,2.200000X2.200000*%
%ADD22R,1.800000X1.800000*%
%ADD23C,1.800000*%
%ADD24C,1.600000*%
%ADD25C,3.200000*%
%ADD26R,1.905000X2.000000*%
%ADD27O,1.905000X2.000000*%
%ADD28R,2.600000X2.600000*%
%ADD29C,2.600000*%
%ADD30RoundRect,0.500000X-0.750000X-2.500000X0.750000X-2.500000X0.750000X2.500000X-0.750000X2.500000X0*%
G04 APERTURE END LIST*
D10*
X137250000Y-32600000D02*
X137250000Y-34200000D01*
X137999999Y-31200001D02*
G75*
G02*
X136500001Y-31200001I-749999J-499999D01*
G01*
X137250000Y-31140984D02*
X137250000Y-29700000D01*
X137809017Y-31700000D02*
G75*
G02*
X136690983Y-31700000I-559017J0D01*
G01*
X136690983Y-31700000D02*
G75*
G02*
X137809017Y-31700000I559017J0D01*
G01*
D11*
X136706900Y-33628571D02*
X136706900Y-34771429D01*
X136128571Y-29093100D02*
X137271429Y-29093100D01*
X136700000Y-28521671D02*
X136700000Y-29664528D01*
%LPC*%
D12*
X109889000Y-31373000D03*
D13*
X109889000Y-33913000D03*
D12*
X109889000Y-36453000D03*
X109889000Y-38993000D03*
X109889000Y-41533000D03*
X109889000Y-44073000D03*
X109889000Y-46613000D03*
X109889000Y-49153000D03*
X109889000Y-51693000D03*
X125129000Y-51693000D03*
X125129000Y-49153000D03*
X125129000Y-46613000D03*
X125129000Y-44073000D03*
X125129000Y-41533000D03*
X125129000Y-38993000D03*
X125129000Y-36453000D03*
X125129000Y-33913000D03*
X125129000Y-31373000D03*
D14*
X144157500Y-41007500D03*
D15*
X144157500Y-35007500D03*
D16*
X139457500Y-38007500D03*
D17*
X94350000Y-59300000D03*
D18*
X132035000Y-41535000D03*
X132035000Y-38995000D03*
X132035000Y-36455000D03*
X132035000Y-33915000D03*
D19*
X132035000Y-31375000D03*
X102900000Y-44100000D03*
D18*
X102900000Y-46640000D03*
X102900000Y-49180000D03*
X102900000Y-51720000D03*
D12*
X112340000Y-66230000D03*
X109800000Y-66230000D03*
X107260000Y-66230000D03*
X107260000Y-81470000D03*
X109800000Y-81470000D03*
X112340000Y-81470000D03*
D13*
X231730000Y-67450000D03*
D12*
X239350000Y-67450000D03*
D20*
X233000000Y-74050000D03*
D21*
X233000000Y-84210000D03*
D22*
X240260000Y-71700000D03*
D23*
X242800000Y-71700000D03*
D13*
X167290000Y-67500000D03*
D12*
X174910000Y-67500000D03*
D20*
X168500000Y-73900000D03*
D21*
X168500000Y-84060000D03*
D22*
X175725000Y-71700000D03*
D23*
X178265000Y-71700000D03*
D13*
X164500000Y-49700000D03*
D24*
X164500000Y-47200000D03*
X146900000Y-48600000D03*
X141900000Y-48600000D03*
X220170000Y-56750000D03*
D12*
X230330000Y-56750000D03*
D24*
X103000000Y-36500000D03*
X103000000Y-31500000D03*
D12*
X119350000Y-61250000D03*
D24*
X119350000Y-71410000D03*
D25*
X246000000Y-88000000D03*
D24*
X146110000Y-61850000D03*
D12*
X135950000Y-61850000D03*
D24*
X97800000Y-46710000D03*
D12*
X97800000Y-36550000D03*
D22*
X171010000Y-34750000D03*
D23*
X173550000Y-34750000D03*
D17*
X205650000Y-83950000D03*
X205650000Y-77450000D03*
X210150000Y-83950000D03*
X210150000Y-77450000D03*
D24*
X151700000Y-84310000D03*
D12*
X151700000Y-74150000D03*
D24*
X124100000Y-62960000D03*
X129100000Y-62960000D03*
X108500000Y-59400000D03*
X113500000Y-59400000D03*
D26*
X221740000Y-71210000D03*
D27*
X224280000Y-71210000D03*
X226820000Y-71210000D03*
D26*
X124720000Y-71040000D03*
D27*
X127260000Y-71040000D03*
X129800000Y-71040000D03*
D24*
X210700000Y-61700000D03*
D12*
X200540000Y-61700000D03*
X197980000Y-56800000D03*
D24*
X187820000Y-56800000D03*
X156500000Y-62960000D03*
X161500000Y-62960000D03*
D17*
X173500000Y-83950000D03*
X173500000Y-77450000D03*
X178000000Y-83950000D03*
X178000000Y-77450000D03*
D12*
X100950000Y-66250000D03*
X98410000Y-66250000D03*
X95870000Y-66250000D03*
X95870000Y-81490000D03*
X98410000Y-81490000D03*
X100950000Y-81490000D03*
D24*
X184150000Y-84260000D03*
D12*
X184150000Y-74100000D03*
D24*
X184100000Y-71560000D03*
D12*
X184100000Y-61400000D03*
D24*
X188600000Y-63000000D03*
X193600000Y-63000000D03*
X151750000Y-71360000D03*
D12*
X151750000Y-61200000D03*
D28*
X157250000Y-80320000D03*
D29*
X162250000Y-80320000D03*
D24*
X220800000Y-62950000D03*
X225800000Y-62950000D03*
D13*
X156950000Y-49682380D03*
D24*
X156950000Y-47182380D03*
D12*
X122920000Y-56750000D03*
D24*
X133080000Y-56750000D03*
D17*
X238030000Y-83960000D03*
X238030000Y-77460000D03*
X242530000Y-83960000D03*
X242530000Y-77460000D03*
D24*
X119370000Y-84330000D03*
D12*
X119370000Y-74170000D03*
D20*
X200900000Y-73850000D03*
D21*
X200900000Y-84010000D03*
D12*
X94000000Y-36520000D03*
D24*
X94000000Y-46680000D03*
X172800000Y-51580000D03*
D12*
X172800000Y-41420000D03*
D28*
X221780000Y-80460000D03*
D29*
X226780000Y-80460000D03*
D26*
X157170000Y-71210000D03*
D27*
X159710000Y-71210000D03*
X162250000Y-71210000D03*
D24*
X216300000Y-71560000D03*
D12*
X216300000Y-61400000D03*
D28*
X124902379Y-80250000D03*
D29*
X129902379Y-80250000D03*
D25*
X246000000Y-31000000D03*
D28*
X189630000Y-80210000D03*
D29*
X194630000Y-80210000D03*
D24*
X165700000Y-56800000D03*
D12*
X155540000Y-56800000D03*
D25*
X94000000Y-88000000D03*
D17*
X141000000Y-84040000D03*
X141000000Y-77540000D03*
X145500000Y-84040000D03*
X145500000Y-77540000D03*
D26*
X189590000Y-71210000D03*
D27*
X192130000Y-71210000D03*
X194670000Y-71210000D03*
D24*
X242880000Y-61800000D03*
D12*
X232720000Y-61800000D03*
X142320000Y-67450000D03*
D13*
X134700000Y-67450000D03*
D20*
X136350000Y-73850000D03*
D21*
X136350000Y-84010000D03*
D24*
X178480000Y-61700000D03*
D12*
X168320000Y-61700000D03*
D24*
X216350000Y-84300000D03*
D12*
X216350000Y-74140000D03*
D30*
X155598000Y-34450000D03*
X160398000Y-34450000D03*
D22*
X208060000Y-71710000D03*
D23*
X210600000Y-71710000D03*
D12*
X207050000Y-67500000D03*
D13*
X199430000Y-67500000D03*
D24*
X100100000Y-59400000D03*
X105100000Y-59400000D03*
D22*
X143300000Y-71750000D03*
D23*
X145840000Y-71750000D03*
D25*
X94000000Y-31000000D03*
%LPD*%
M02*
