G04 #@! TF.GenerationSoftware,KiCad,Pcbnew,8.0.0-rc1*
G04 #@! TF.CreationDate,2025-12-06T14:39:44+01:00*
G04 #@! TF.ProjectId,Pneumatic control unit system,506e6575-6d61-4746-9963-20636f6e7472,rev?*
G04 #@! TF.SameCoordinates,Original*
G04 #@! TF.FileFunction,Copper,L2,Bot*
G04 #@! TF.FilePolarity,Positive*
%FSLAX46Y46*%
G04 Gerber Fmt 4.6, Leading zero omitted, Abs format (unit mm)*
G04 Created by KiCad (PCBNEW 8.0.0-rc1) date 2025-12-06 14:39:44*
%MOMM*%
%LPD*%
G01*
G04 APERTURE LIST*
G04 Aperture macros list*
%AMRoundRect*
0 Rectangle with rounded corners*
0 $1 Rounding radius*
0 $2 $3 $4 $5 $6 $7 $8 $9 X,Y pos of 4 corners*
0 Add a 4 corners polygon primitive as box body*
4,1,4,$2,$3,$4,$5,$6,$7,$8,$9,$2,$3,0*
0 Add four circle primitives for the rounded corners*
1,1,$1+$1,$2,$3*
1,1,$1+$1,$4,$5*
1,1,$1+$1,$6,$7*
1,1,$1+$1,$8,$9*
0 Add four rect primitives between the rounded corners*
20,1,$1+$1,$2,$3,$4,$5,0*
20,1,$1+$1,$4,$5,$6,$7,0*
20,1,$1+$1,$6,$7,$8,$9,0*
20,1,$1+$1,$8,$9,$2,$3,0*%
G04 Aperture macros list end*
G04 #@! TA.AperFunction,SMDPad,CuDef*
%ADD10RoundRect,0.237500X-0.300000X-0.237500X0.300000X-0.237500X0.300000X0.237500X-0.300000X0.237500X0*%
G04 #@! TD*
G04 #@! TA.AperFunction,SMDPad,CuDef*
%ADD11RoundRect,0.237500X0.300000X0.237500X-0.300000X0.237500X-0.300000X-0.237500X0.300000X-0.237500X0*%
G04 #@! TD*
G04 #@! TA.AperFunction,ComponentPad*
%ADD12O,1.700000X1.700000*%
G04 #@! TD*
G04 #@! TA.AperFunction,ComponentPad*
%ADD13R,1.700000X1.700000*%
G04 #@! TD*
G04 #@! TA.AperFunction,Conductor*
%ADD14C,0.500000*%
G04 #@! TD*
G04 APERTURE END LIST*
D10*
X18800000Y-16500000D03*
X20525000Y-16500000D03*
D11*
X20562500Y-13900000D03*
X18837500Y-13900000D03*
D12*
X29045000Y-18870000D03*
X29045000Y-16330000D03*
X29045000Y-13790000D03*
D13*
X13800000Y-13815000D03*
D12*
X13800000Y-16355000D03*
X13800000Y-18895000D03*
D11*
X24062500Y-18900000D03*
X22337500Y-18900000D03*
D14*
X18625000Y-16875000D02*
X16600000Y-18900000D01*
X16595000Y-18895000D02*
X13800000Y-18895000D01*
X16600000Y-18900000D02*
X16595000Y-18895000D01*
X18625000Y-16500000D02*
X18625000Y-16875000D01*
X24237500Y-18900000D02*
X29015000Y-18900000D01*
X29015000Y-18900000D02*
X29045000Y-18870000D01*
X20737500Y-13900000D02*
X22700000Y-13900000D01*
X22700000Y-13900000D02*
X25130000Y-16330000D01*
X25130000Y-16330000D02*
X29045000Y-16330000D01*
G04 #@! TA.AperFunction,Conductor*
G36*
X24280069Y-12220185D02*
G01*
X24325824Y-12272989D01*
X24335768Y-12342147D01*
X24306743Y-12405703D01*
X24274509Y-12431440D01*
X24274570Y-12431531D01*
X24273507Y-12432241D01*
X24271481Y-12433859D01*
X24269506Y-12434914D01*
X24146584Y-12517048D01*
X24146580Y-12517051D01*
X24042051Y-12621580D01*
X24042048Y-12621584D01*
X23959919Y-12744498D01*
X23959912Y-12744511D01*
X23903343Y-12881082D01*
X23903340Y-12881092D01*
X23874500Y-13026079D01*
X23874500Y-13026082D01*
X23874500Y-13173918D01*
X23874500Y-13173920D01*
X23874499Y-13173920D01*
X23903340Y-13318907D01*
X23903343Y-13318917D01*
X23959912Y-13455488D01*
X23959919Y-13455501D01*
X24042048Y-13578415D01*
X24042051Y-13578419D01*
X24146580Y-13682948D01*
X24146584Y-13682951D01*
X24269498Y-13765080D01*
X24269511Y-13765087D01*
X24406082Y-13821656D01*
X24406087Y-13821658D01*
X24406091Y-13821658D01*
X24406092Y-13821659D01*
X24551079Y-13850500D01*
X24551082Y-13850500D01*
X24698920Y-13850500D01*
X24796462Y-13831096D01*
X24843913Y-13821658D01*
X24920342Y-13790000D01*
X27989417Y-13790000D01*
X28009699Y-13995932D01*
X28009700Y-13995934D01*
X28069768Y-14193954D01*
X28167315Y-14376450D01*
X28167317Y-14376452D01*
X28298589Y-14536410D01*
X28373683Y-14598037D01*
X28458550Y-14667685D01*
X28641046Y-14765232D01*
X28839066Y-14825300D01*
X28839065Y-14825300D01*
X28857529Y-14827118D01*
X29045000Y-14845583D01*
X29250934Y-14825300D01*
X29448954Y-14765232D01*
X29631450Y-14667685D01*
X29791410Y-14536410D01*
X29922685Y-14376450D01*
X30020232Y-14193954D01*
X30080300Y-13995934D01*
X30100583Y-13790000D01*
X30080300Y-13584066D01*
X30020232Y-13386046D01*
X29922685Y-13203550D01*
X29867667Y-13136510D01*
X29791410Y-13043589D01*
X29671578Y-12945247D01*
X29631450Y-12912315D01*
X29448954Y-12814768D01*
X29250934Y-12754700D01*
X29250932Y-12754699D01*
X29250934Y-12754699D01*
X29045000Y-12734417D01*
X28839067Y-12754699D01*
X28641043Y-12814769D01*
X28530898Y-12873643D01*
X28458550Y-12912315D01*
X28458548Y-12912316D01*
X28458547Y-12912317D01*
X28298589Y-13043589D01*
X28167317Y-13203547D01*
X28069769Y-13386043D01*
X28009699Y-13584067D01*
X27989417Y-13790000D01*
X24920342Y-13790000D01*
X24980495Y-13765084D01*
X25103416Y-13682951D01*
X25207951Y-13578416D01*
X25290084Y-13455495D01*
X25346658Y-13318913D01*
X25363527Y-13234108D01*
X25375500Y-13173920D01*
X25375500Y-13026079D01*
X25346659Y-12881092D01*
X25346658Y-12881091D01*
X25346658Y-12881087D01*
X25321540Y-12820447D01*
X25290087Y-12744511D01*
X25290080Y-12744498D01*
X25207951Y-12621584D01*
X25207948Y-12621580D01*
X25103419Y-12517051D01*
X25103415Y-12517048D01*
X24980493Y-12434914D01*
X24978519Y-12433859D01*
X24977678Y-12433033D01*
X24975430Y-12431531D01*
X24975714Y-12431104D01*
X24928674Y-12384898D01*
X24913212Y-12316761D01*
X24937042Y-12251080D01*
X24992599Y-12208711D01*
X25036970Y-12200500D01*
X30475500Y-12200500D01*
X30542539Y-12220185D01*
X30588294Y-12272989D01*
X30599500Y-12324500D01*
X30599500Y-20375500D01*
X30579815Y-20442539D01*
X30527011Y-20488294D01*
X30475500Y-20499500D01*
X12324500Y-20499500D01*
X12257461Y-20479815D01*
X12211706Y-20427011D01*
X12200500Y-20375500D01*
X12200500Y-13558676D01*
X12220185Y-13491637D01*
X12236819Y-13470995D01*
X12537819Y-13169995D01*
X12599142Y-13136510D01*
X12668834Y-13141494D01*
X12724767Y-13183366D01*
X12749184Y-13248830D01*
X12749500Y-13257676D01*
X12749500Y-14684752D01*
X12761131Y-14743229D01*
X12761132Y-14743230D01*
X12805447Y-14809552D01*
X12871769Y-14853867D01*
X12871770Y-14853868D01*
X12930247Y-14865499D01*
X12930250Y-14865500D01*
X13240543Y-14865500D01*
X13307582Y-14885185D01*
X13353337Y-14937989D01*
X13363281Y-15007147D01*
X13334256Y-15070703D01*
X13292948Y-15101882D01*
X13122422Y-15181399D01*
X13122420Y-15181400D01*
X12928926Y-15316886D01*
X12928920Y-15316891D01*
X12761891Y-15483920D01*
X12761886Y-15483926D01*
X12626400Y-15677420D01*
X12626399Y-15677422D01*
X12526570Y-15891507D01*
X12526567Y-15891513D01*
X12469364Y-16104999D01*
X12469364Y-16105000D01*
X13366988Y-16105000D01*
X13334075Y-16162007D01*
X13300000Y-16289174D01*
X13300000Y-16420826D01*
X13334075Y-16547993D01*
X13366988Y-16605000D01*
X12469364Y-16605000D01*
X12526567Y-16818486D01*
X12526570Y-16818492D01*
X12626399Y-17032578D01*
X12761894Y-17226082D01*
X12928917Y-17393105D01*
X13122421Y-17528600D01*
X13336507Y-17628429D01*
X13336516Y-17628433D01*
X13458649Y-17661158D01*
X13518310Y-17697523D01*
X13548839Y-17760369D01*
X13540545Y-17829745D01*
X13496059Y-17883623D01*
X13462552Y-17899593D01*
X13396046Y-17919767D01*
X13265502Y-17989546D01*
X13213550Y-18017315D01*
X13213548Y-18017316D01*
X13213547Y-18017317D01*
X13053589Y-18148589D01*
X12925376Y-18304820D01*
X12922315Y-18308550D01*
X12892963Y-18363464D01*
X12824769Y-18491043D01*
X12764699Y-18689067D01*
X12744417Y-18895000D01*
X12764699Y-19100932D01*
X12764700Y-19100934D01*
X12824768Y-19298954D01*
X12922315Y-19481450D01*
X12922317Y-19481452D01*
X13053589Y-19641410D01*
X13148021Y-19718907D01*
X13213550Y-19772685D01*
X13396046Y-19870232D01*
X13594066Y-19930300D01*
X13594065Y-19930300D01*
X13612529Y-19932118D01*
X13800000Y-19950583D01*
X14005934Y-19930300D01*
X14203954Y-19870232D01*
X14386450Y-19772685D01*
X14546410Y-19641410D01*
X14601797Y-19573920D01*
X17474499Y-19573920D01*
X17503340Y-19718907D01*
X17503343Y-19718917D01*
X17559912Y-19855488D01*
X17559919Y-19855501D01*
X17642048Y-19978415D01*
X17642051Y-19978419D01*
X17746580Y-20082948D01*
X17746584Y-20082951D01*
X17869498Y-20165080D01*
X17869511Y-20165087D01*
X18006082Y-20221656D01*
X18006087Y-20221658D01*
X18006091Y-20221658D01*
X18006092Y-20221659D01*
X18151079Y-20250500D01*
X18151082Y-20250500D01*
X18298920Y-20250500D01*
X18396462Y-20231096D01*
X18443913Y-20221658D01*
X18580495Y-20165084D01*
X18703416Y-20082951D01*
X18807951Y-19978416D01*
X18890084Y-19855495D01*
X18946658Y-19718913D01*
X18970702Y-19598038D01*
X18975500Y-19573920D01*
X18975500Y-19426079D01*
X18946659Y-19281092D01*
X18946658Y-19281091D01*
X18946658Y-19281087D01*
X18943704Y-19273956D01*
X18892361Y-19150000D01*
X21300001Y-19150000D01*
X21300001Y-19186654D01*
X21310319Y-19287652D01*
X21364546Y-19451300D01*
X21364551Y-19451311D01*
X21455052Y-19598034D01*
X21455055Y-19598038D01*
X21576961Y-19719944D01*
X21576965Y-19719947D01*
X21723688Y-19810448D01*
X21723699Y-19810453D01*
X21887347Y-19864680D01*
X21988351Y-19874999D01*
X22587500Y-19874999D01*
X22686640Y-19874999D01*
X22686654Y-19874998D01*
X22787652Y-19864680D01*
X22951300Y-19810453D01*
X22951311Y-19810448D01*
X23098034Y-19719947D01*
X23098038Y-19719944D01*
X23219945Y-19598037D01*
X23283388Y-19495180D01*
X23335336Y-19448455D01*
X23404298Y-19437232D01*
X23462558Y-19460504D01*
X23490942Y-19481452D01*
X23555525Y-19529116D01*
X23680151Y-19572725D01*
X23680150Y-19572725D01*
X23709740Y-19575500D01*
X23709744Y-19575500D01*
X24415260Y-19575500D01*
X24444849Y-19572725D01*
X24569475Y-19529116D01*
X24675711Y-19450711D01*
X24712498Y-19400866D01*
X24768146Y-19358615D01*
X24812268Y-19350500D01*
X28036361Y-19350500D01*
X28103400Y-19370185D01*
X28145717Y-19416044D01*
X28167315Y-19456450D01*
X28199100Y-19495180D01*
X28298589Y-19616410D01*
X28395209Y-19695702D01*
X28458550Y-19747685D01*
X28641046Y-19845232D01*
X28839066Y-19905300D01*
X28839065Y-19905300D01*
X28857529Y-19907118D01*
X29045000Y-19925583D01*
X29250934Y-19905300D01*
X29448954Y-19845232D01*
X29631450Y-19747685D01*
X29791410Y-19616410D01*
X29922685Y-19456450D01*
X30020232Y-19273954D01*
X30080300Y-19075934D01*
X30100583Y-18870000D01*
X30080300Y-18664066D01*
X30020232Y-18466046D01*
X29922685Y-18283550D01*
X29811927Y-18148590D01*
X29791410Y-18123589D01*
X29631452Y-17992317D01*
X29631453Y-17992317D01*
X29631450Y-17992315D01*
X29448954Y-17894768D01*
X29250934Y-17834700D01*
X29250932Y-17834699D01*
X29250934Y-17834699D01*
X29045000Y-17814417D01*
X28839067Y-17834699D01*
X28641043Y-17894769D01*
X28565181Y-17935319D01*
X28458550Y-17992315D01*
X28458548Y-17992316D01*
X28458547Y-17992317D01*
X28298589Y-18123589D01*
X28167317Y-18283547D01*
X28167315Y-18283550D01*
X28113646Y-18383955D01*
X28064685Y-18433798D01*
X28004290Y-18449500D01*
X24812268Y-18449500D01*
X24745229Y-18429815D01*
X24712498Y-18399134D01*
X24686172Y-18363464D01*
X24675711Y-18349289D01*
X24675709Y-18349288D01*
X24675709Y-18349287D01*
X24569476Y-18270884D01*
X24444848Y-18227274D01*
X24444849Y-18227274D01*
X24415260Y-18224500D01*
X24415256Y-18224500D01*
X23709744Y-18224500D01*
X23709740Y-18224500D01*
X23680150Y-18227274D01*
X23555525Y-18270883D01*
X23462560Y-18339494D01*
X23396930Y-18363464D01*
X23328760Y-18348148D01*
X23283388Y-18304820D01*
X23219943Y-18201960D01*
X23098038Y-18080055D01*
X23098034Y-18080052D01*
X22951311Y-17989551D01*
X22951300Y-17989546D01*
X22787652Y-17935319D01*
X22686654Y-17925000D01*
X22587500Y-17925000D01*
X22587500Y-19874999D01*
X21988351Y-19874999D01*
X22087500Y-19874998D01*
X22087500Y-19150000D01*
X21300001Y-19150000D01*
X18892361Y-19150000D01*
X18890087Y-19144511D01*
X18890080Y-19144498D01*
X18807951Y-19021584D01*
X18807948Y-19021580D01*
X18703419Y-18917051D01*
X18703415Y-18917048D01*
X18580501Y-18834919D01*
X18580488Y-18834912D01*
X18443917Y-18778343D01*
X18443907Y-18778340D01*
X18298920Y-18749500D01*
X18298918Y-18749500D01*
X18151082Y-18749500D01*
X18151080Y-18749500D01*
X18006092Y-18778340D01*
X18006082Y-18778343D01*
X17869511Y-18834912D01*
X17869498Y-18834919D01*
X17746584Y-18917048D01*
X17746580Y-18917051D01*
X17642051Y-19021580D01*
X17642048Y-19021584D01*
X17559919Y-19144498D01*
X17559912Y-19144511D01*
X17503343Y-19281082D01*
X17503340Y-19281092D01*
X17474500Y-19426079D01*
X17474500Y-19426082D01*
X17474500Y-19573918D01*
X17474500Y-19573920D01*
X17474499Y-19573920D01*
X14601797Y-19573920D01*
X14677685Y-19481450D01*
X14694115Y-19450712D01*
X14715317Y-19411047D01*
X14764279Y-19361203D01*
X14824675Y-19345500D01*
X16505710Y-19345500D01*
X16537801Y-19349725D01*
X16540686Y-19350498D01*
X16540688Y-19350498D01*
X16540691Y-19350499D01*
X16540693Y-19350499D01*
X16659306Y-19350499D01*
X16659309Y-19350499D01*
X16729429Y-19331710D01*
X16773885Y-19319800D01*
X16773887Y-19319799D01*
X16876614Y-19260489D01*
X16960489Y-19176614D01*
X16960490Y-19176613D01*
X17487103Y-18650000D01*
X21300000Y-18650000D01*
X22087500Y-18650000D01*
X22087500Y-17924999D01*
X21988360Y-17925000D01*
X21988344Y-17925001D01*
X21887347Y-17935319D01*
X21723699Y-17989546D01*
X21723688Y-17989551D01*
X21576965Y-18080052D01*
X21576961Y-18080055D01*
X21455055Y-18201961D01*
X21455052Y-18201965D01*
X21364551Y-18348688D01*
X21364546Y-18348699D01*
X21310319Y-18512347D01*
X21300000Y-18613345D01*
X21300000Y-18650000D01*
X17487103Y-18650000D01*
X18925284Y-17211819D01*
X18986607Y-17178334D01*
X19012965Y-17175500D01*
X19152760Y-17175500D01*
X19182349Y-17172725D01*
X19306975Y-17129116D01*
X19399940Y-17060505D01*
X19465567Y-17036535D01*
X19533738Y-17051850D01*
X19579110Y-17095179D01*
X19642552Y-17198034D01*
X19642555Y-17198038D01*
X19764461Y-17319944D01*
X19764465Y-17319947D01*
X19911188Y-17410448D01*
X19911199Y-17410453D01*
X20074847Y-17464680D01*
X20175851Y-17474999D01*
X20275000Y-17474998D01*
X20275000Y-16750000D01*
X20775000Y-16750000D01*
X20775000Y-17474999D01*
X20874140Y-17474999D01*
X20874154Y-17474998D01*
X20975152Y-17464680D01*
X21138800Y-17410453D01*
X21138811Y-17410448D01*
X21285534Y-17319947D01*
X21285538Y-17319944D01*
X21407444Y-17198038D01*
X21407447Y-17198034D01*
X21497948Y-17051311D01*
X21497953Y-17051300D01*
X21552180Y-16887652D01*
X21562499Y-16786654D01*
X21562500Y-16786641D01*
X21562500Y-16750000D01*
X20775000Y-16750000D01*
X20275000Y-16750000D01*
X20275000Y-15525000D01*
X20775000Y-15525000D01*
X20775000Y-16250000D01*
X21562499Y-16250000D01*
X21562499Y-16213360D01*
X21562498Y-16213345D01*
X21552180Y-16112347D01*
X21497953Y-15948699D01*
X21497948Y-15948688D01*
X21407447Y-15801965D01*
X21407444Y-15801961D01*
X21285538Y-15680055D01*
X21285534Y-15680052D01*
X21138811Y-15589551D01*
X21138800Y-15589546D01*
X20975152Y-15535319D01*
X20874154Y-15525000D01*
X20775000Y-15525000D01*
X20275000Y-15525000D01*
X20275000Y-15524999D01*
X20175860Y-15525000D01*
X20175844Y-15525001D01*
X20074847Y-15535319D01*
X19911199Y-15589546D01*
X19911188Y-15589551D01*
X19764465Y-15680052D01*
X19764461Y-15680055D01*
X19642554Y-15801962D01*
X19579110Y-15904821D01*
X19527162Y-15951545D01*
X19458199Y-15962766D01*
X19399939Y-15939494D01*
X19306974Y-15870883D01*
X19182348Y-15827274D01*
X19182349Y-15827274D01*
X19152760Y-15824500D01*
X19152756Y-15824500D01*
X18447244Y-15824500D01*
X18447240Y-15824500D01*
X18417650Y-15827274D01*
X18293023Y-15870884D01*
X18186789Y-15949288D01*
X18186788Y-15949289D01*
X18108384Y-16055523D01*
X18064774Y-16180150D01*
X18062000Y-16209739D01*
X18062000Y-16749534D01*
X18042315Y-16816573D01*
X18025681Y-16837215D01*
X16454716Y-18408181D01*
X16393393Y-18441666D01*
X16367035Y-18444500D01*
X14824675Y-18444500D01*
X14757636Y-18424815D01*
X14715317Y-18378953D01*
X14677688Y-18308555D01*
X14677684Y-18308549D01*
X14677682Y-18308547D01*
X14654143Y-18279864D01*
X14546410Y-18148589D01*
X14386452Y-18017317D01*
X14386453Y-18017317D01*
X14386450Y-18017315D01*
X14203954Y-17919768D01*
X14137447Y-17899593D01*
X14079009Y-17861296D01*
X14050553Y-17797484D01*
X14061113Y-17728417D01*
X14107337Y-17676023D01*
X14141350Y-17661158D01*
X14263483Y-17628433D01*
X14263492Y-17628429D01*
X14477578Y-17528600D01*
X14671082Y-17393105D01*
X14838105Y-17226082D01*
X14973600Y-17032578D01*
X15073429Y-16818492D01*
X15073432Y-16818486D01*
X15130636Y-16605000D01*
X14233012Y-16605000D01*
X14265925Y-16547993D01*
X14300000Y-16420826D01*
X14300000Y-16289174D01*
X14265925Y-16162007D01*
X14233012Y-16105000D01*
X15130636Y-16105000D01*
X15130635Y-16104999D01*
X15073432Y-15891513D01*
X15073429Y-15891507D01*
X14973600Y-15677422D01*
X14973599Y-15677420D01*
X14838113Y-15483926D01*
X14838108Y-15483920D01*
X14671082Y-15316894D01*
X14477578Y-15181399D01*
X14307052Y-15101882D01*
X14254613Y-15055710D01*
X14235461Y-14988516D01*
X14255677Y-14921635D01*
X14308842Y-14876300D01*
X14359457Y-14865500D01*
X14669750Y-14865500D01*
X14669751Y-14865499D01*
X14684568Y-14862552D01*
X14728229Y-14853868D01*
X14728229Y-14853867D01*
X14728231Y-14853867D01*
X14794552Y-14809552D01*
X14838867Y-14743231D01*
X14838867Y-14743229D01*
X14838868Y-14743229D01*
X14850499Y-14684752D01*
X14850500Y-14684750D01*
X14850500Y-14150000D01*
X17800001Y-14150000D01*
X17800001Y-14186654D01*
X17810319Y-14287652D01*
X17864546Y-14451300D01*
X17864551Y-14451311D01*
X17955052Y-14598034D01*
X17955055Y-14598038D01*
X18076961Y-14719944D01*
X18076965Y-14719947D01*
X18223688Y-14810448D01*
X18223699Y-14810453D01*
X18387347Y-14864680D01*
X18488351Y-14874999D01*
X18587500Y-14874998D01*
X18587500Y-14150000D01*
X17800001Y-14150000D01*
X14850500Y-14150000D01*
X14850500Y-13650000D01*
X17800000Y-13650000D01*
X18587500Y-13650000D01*
X18587500Y-12925000D01*
X19087500Y-12925000D01*
X19087500Y-14874999D01*
X19186640Y-14874999D01*
X19186654Y-14874998D01*
X19287652Y-14864680D01*
X19451300Y-14810453D01*
X19451311Y-14810448D01*
X19598034Y-14719947D01*
X19598038Y-14719944D01*
X19719945Y-14598037D01*
X19783388Y-14495180D01*
X19835336Y-14448455D01*
X19904298Y-14437232D01*
X19962560Y-14460505D01*
X20055525Y-14529116D01*
X20180151Y-14572725D01*
X20180150Y-14572725D01*
X20209740Y-14575500D01*
X20209744Y-14575500D01*
X20915260Y-14575500D01*
X20944849Y-14572725D01*
X21069475Y-14529116D01*
X21175711Y-14450711D01*
X21212498Y-14400866D01*
X21268146Y-14358615D01*
X21312268Y-14350500D01*
X22462035Y-14350500D01*
X22529074Y-14370185D01*
X22549716Y-14386819D01*
X24853386Y-16690489D01*
X24956113Y-16749799D01*
X24980321Y-16756284D01*
X24980324Y-16756286D01*
X24980325Y-16756286D01*
X25010447Y-16764357D01*
X25070691Y-16780500D01*
X28020325Y-16780500D01*
X28087364Y-16800185D01*
X28129683Y-16846047D01*
X28167311Y-16916444D01*
X28167315Y-16916450D01*
X28298589Y-17076410D01*
X28395209Y-17155702D01*
X28458550Y-17207685D01*
X28641046Y-17305232D01*
X28839066Y-17365300D01*
X28839065Y-17365300D01*
X28857529Y-17367118D01*
X29045000Y-17385583D01*
X29250934Y-17365300D01*
X29448954Y-17305232D01*
X29631450Y-17207685D01*
X29791410Y-17076410D01*
X29922685Y-16916450D01*
X30020232Y-16733954D01*
X30080300Y-16535934D01*
X30100583Y-16330000D01*
X30080300Y-16124066D01*
X30020232Y-15926046D01*
X29922685Y-15743550D01*
X29868414Y-15677420D01*
X29791410Y-15583589D01*
X29631452Y-15452317D01*
X29631453Y-15452317D01*
X29631450Y-15452315D01*
X29448954Y-15354768D01*
X29250934Y-15294700D01*
X29250932Y-15294699D01*
X29250934Y-15294699D01*
X29045000Y-15274417D01*
X28839067Y-15294699D01*
X28641043Y-15354769D01*
X28530898Y-15413643D01*
X28458550Y-15452315D01*
X28458548Y-15452316D01*
X28458547Y-15452317D01*
X28298589Y-15583589D01*
X28167315Y-15743549D01*
X28167311Y-15743555D01*
X28129683Y-15813953D01*
X28080721Y-15863797D01*
X28020325Y-15879500D01*
X25367965Y-15879500D01*
X25300926Y-15859815D01*
X25280284Y-15843181D01*
X22976616Y-13539513D01*
X22976614Y-13539511D01*
X22893695Y-13491637D01*
X22873888Y-13480201D01*
X22861780Y-13476957D01*
X22849673Y-13473713D01*
X22849670Y-13473712D01*
X22811478Y-13463478D01*
X22759309Y-13449500D01*
X22759308Y-13449500D01*
X21312268Y-13449500D01*
X21245229Y-13429815D01*
X21212498Y-13399134D01*
X21186172Y-13363464D01*
X21175711Y-13349289D01*
X21175709Y-13349288D01*
X21175709Y-13349287D01*
X21069476Y-13270884D01*
X20944848Y-13227274D01*
X20944849Y-13227274D01*
X20915260Y-13224500D01*
X20915256Y-13224500D01*
X20209744Y-13224500D01*
X20209740Y-13224500D01*
X20180150Y-13227274D01*
X20055525Y-13270883D01*
X19962560Y-13339494D01*
X19896930Y-13363464D01*
X19828760Y-13348148D01*
X19783388Y-13304820D01*
X19719943Y-13201960D01*
X19598038Y-13080055D01*
X19598034Y-13080052D01*
X19451311Y-12989551D01*
X19451300Y-12989546D01*
X19287652Y-12935319D01*
X19186654Y-12925000D01*
X19087500Y-12925000D01*
X18587500Y-12925000D01*
X18587500Y-12924999D01*
X18488360Y-12925000D01*
X18488344Y-12925001D01*
X18387347Y-12935319D01*
X18223699Y-12989546D01*
X18223688Y-12989551D01*
X18076965Y-13080052D01*
X18076961Y-13080055D01*
X17955055Y-13201961D01*
X17955052Y-13201965D01*
X17864551Y-13348688D01*
X17864546Y-13348699D01*
X17810319Y-13512347D01*
X17800000Y-13613345D01*
X17800000Y-13650000D01*
X14850500Y-13650000D01*
X14850500Y-12945249D01*
X14850499Y-12945247D01*
X14838868Y-12886770D01*
X14838867Y-12886769D01*
X14794552Y-12820447D01*
X14728230Y-12776132D01*
X14728229Y-12776131D01*
X14669752Y-12764500D01*
X14669748Y-12764500D01*
X13242676Y-12764500D01*
X13175637Y-12744815D01*
X13129882Y-12692011D01*
X13119938Y-12622853D01*
X13148963Y-12559297D01*
X13154995Y-12552819D01*
X13470995Y-12236819D01*
X13532318Y-12203334D01*
X13558676Y-12200500D01*
X24213030Y-12200500D01*
X24280069Y-12220185D01*
G37*
G04 #@! TD.AperFunction*
M02*
