G04 #@! TF.GenerationSoftware,KiCad,Pcbnew,8.0.0-rc1*
G04 #@! TF.CreationDate,2025-12-06T14:39:44+01:00*
G04 #@! TF.ProjectId,Pneumatic control unit system,506e6575-6d61-4746-9963-20636f6e7472,rev?*
G04 #@! TF.SameCoordinates,Original*
G04 #@! TF.FileFunction,Legend,Top*
G04 #@! TF.FilePolarity,Positive*
%FSLAX46Y46*%
G04 Gerber Fmt 4.6, Leading zero omitted, Abs format (unit mm)*
G04 Created by KiCad (PCBNEW 8.0.0-rc1) date 2025-12-06 14:39:44*
%MOMM*%
%LPD*%
G01*
G04 APERTURE LIST*
G04 Aperture macros list*
%AMRoundRect*
0 Rectangle with rounded corners*
0 $1 Rounding radius*
0 $2 $3 $4 $5 $6 $7 $8 $9 X,Y pos of 4 corners*
0 Add a 4 corners polygon primitive as box body*
4,1,4,$2,$3,$4,$5,$6,$7,$8,$9,$2,$3,0*
0 Add four circle primitives for the rounded corners*
1,1,$1+$1,$2,$3*
1,1,$1+$1,$4,$5*
1,1,$1+$1,$6,$7*
1,1,$1+$1,$8,$9*
0 Add four rect primitives between the rounded corners*
20,1,$1+$1,$2,$3,$4,$5,0*
20,1,$1+$1,$4,$5,$6,$7,0*
20,1,$1+$1,$6,$7,$8,$9,0*
20,1,$1+$1,$8,$9,$2,$3,0*%
G04 Aperture macros list end*
%ADD10C,0.120000*%
%ADD11C,1.000000*%
%ADD12RoundRect,0.275000X-0.525000X-0.275000X0.525000X-0.275000X0.525000X0.275000X-0.525000X0.275000X0*%
%ADD13O,1.700000X1.700000*%
%ADD14R,1.700000X1.700000*%
G04 APERTURE END LIST*
D10*
X17425000Y-12300000D02*
X17425000Y-12610000D01*
X17425000Y-20300000D02*
X17425000Y-19990000D01*
X21415000Y-20300000D02*
X17425000Y-20300000D01*
X21415000Y-20300000D02*
X25425000Y-20300000D01*
X21425000Y-12300000D02*
X25425000Y-12300000D01*
X21430000Y-12300000D02*
X17425000Y-12300000D01*
X25425000Y-12300000D02*
X25425000Y-12610000D01*
X25425000Y-20300000D02*
X25425000Y-19990000D01*
X21825000Y-12300000D02*
G75*
G02*
X21035000Y-12300000I-395000J0D01*
G01*
X16800000Y-13000000D02*
X16460000Y-12530000D01*
X17140000Y-12530000D01*
X16800000Y-13000000D01*
G36*
X16800000Y-13000000D02*
G01*
X16460000Y-12530000D01*
X17140000Y-12530000D01*
X16800000Y-13000000D01*
G37*
%LPC*%
D11*
X18225000Y-19500000D03*
X24625000Y-13100000D03*
D12*
X16425000Y-13760000D03*
X16425000Y-16300000D03*
X16425000Y-18840000D03*
X26425000Y-18840000D03*
X26425000Y-16300000D03*
X26425000Y-13760000D03*
D13*
X29045000Y-18870000D03*
X29045000Y-16330000D03*
X29045000Y-13790000D03*
D14*
X13800000Y-13815000D03*
D13*
X13800000Y-16355000D03*
X13800000Y-18895000D03*
%LPD*%
M02*
